<?xml version="1.0" standalone="no"?>
<!DOCTYPE svg PUBLIC "-//W3C//DTD SVG 1.1//EN" "http://www.w3.org/Graphics/SVG/1.1/DTD/svg11.dtd">
<svg width="519.8996276855469mm" height="455.68716430664057mm"
 viewBox="0 0 519.8996276855469 455.68716430664057"
 xmlns="http://www.w3.org/2000/svg" version="1.1"
 xmlns:xlink="http://www.w3.org/1999/xlink">
<desc>Output from Flights of Ideas SVG Sketchup Plugin</desc>

  <path id="face0-cut"
 style="fill:none;stroke:#0000FF;stroke-width:1;stroke-miterlimit:4;stroke-dasharray:none;stroke-linejoin:round;stroke-linecap:round"
        d="M 19.277557373046882,237.82096099853513 L 125.62092590332028,244.98609733581551 L 130.7340545654297,245.54102134704564 L 135.78488922119138,246.51116943359375 L 140.7397537231445,247.89007949829102 L 145.56563568115234,249.6685600280762 L 150.23036193847653,251.83475875854472 L 154.70285034179688,254.37423896789562 L 158.95329284667966,257.2700729370116 L 162.95335388183594,260.5029640197753 L 166.67638397216797,264.0513648986816 L 170.09756469726562,267.89162826538086 L 173.19409942626953,271.99815368652344 L 175.94535064697263,276.3435821533202 L 178.33297729492188,280.8989448547362 L 180.34106445312497,285.6338882446289 L 181.95623779296872,290.51684951782227 L 183.16773223876953,295.5152893066405 L 183.96746063232422,300.5958938598633 L 184.35011291503906,305.7248001098633 L 184.31311798095703,310.8678283691405 L 183.8567352294922,315.99069976806635 L 182.98400878906247,321.0592727661132 L 181.70074462890625,326.03976440429676 L 180.0155029296875,330.89898681640614 L 177.93951416015625,335.6045608520508 L 130.97302246093747,431.2831726074218 L 130.2753448486328,433.158966064453 L 129.96514892578125,435.13612365722645 L 130.0548706054687,437.1354522705078 L 130.54093933105466,439.07685852050776 L 131.4038543701172,440.88261413574213 L 132.60906982421875,442.4803619384765 L 134.10830688476557,443.8061370849608 L 135.8415145874023,444.8067932128906 L 137.73928070068354,445.44229125976557 L 139.72557830810544,445.68716430664057 L 141.72086334228516,445.53160095214844 L 143.64521026611334,444.9818267822265 L 145.42154693603516,444.05987548828125 L 146.97871398925778,442.80265808105463 L 148.2543487548828,441.26055908203114 L 207.6312255859375,352.74707031249994 L 210.66837310791018,348.59642028808594 L 214.0339660644531,344.7073440551758 L 217.70557022094724,341.1057586669922 L 221.6587219238281,337.81566619873047 L 225.867073059082,334.85899353027344 L 230.30257225036618,332.2554473876953 L 234.93566131591797,330.0223693847655 L 239.7354640960693,328.17465972900385 L 244.6699867248535,326.72462463378906 L 249.7063446044922,325.6819305419921 L 254.8109731674194,325.05352020263666 L 259.9498496785127,324.8435821533203 L 265.0887260437012,325.0535202026366 L 270.1933536529541,325.6819381713866 L 275.22971057891846,326.72463989257795 L 280.1642322540283,328.1746826171874 L 284.9640312194824,330.02239990234364 L 289.59711837768555,332.2554779052733 L 294.0326156616211,334.8590316772461 L 298.24096298217773,337.81571197509743 L 302.1941108703613,341.1058120727537 L 305.8657112121582,344.7073974609375 L 309.2313003540039,348.5964813232421 L 312.2684440612793,352.74713134765614 L 371.645278930664,441.2605590820311 L 372.92091369628906,442.8026580810546 L 374.4780807495117,444.0598754882813 L 376.25441741943354,444.9818267822266 L 378.1787643432617,445.53160095214844 L 380.1740493774414,445.6871643066404 L 382.1603469848633,445.4422912597656 L 384.0581130981445,444.8067932128905 L 385.79132080078125,443.8061370849608 L 387.2905578613281,442.4803619384765 L 388.49577331542963,440.8826141357422 L 389.35868835449224,439.0768585205077 L 389.8447570800781,437.1354522705078 L 389.9344787597656,435.13612365722634 L 389.62428283691406,433.15896606445307 L 388.9266052246094,431.2831726074219 L 341.9601135253906,335.6045608520508 L 339.8841247558593,330.89898681640625 L 338.1988830566406,326.03976440429676 L 336.9156188964844,321.05926513671875 L 336.0428848266601,315.990692138672 L 335.5865097045898,310.8678207397463 L 335.54951477050776,305.72479248046864 L 335.93216705322266,300.5958862304684 L 336.73189544677734,295.51528167724604 L 337.9433898925781,290.5168418884276 L 339.5585632324219,285.63388061523426 L 341.56665802001953,280.8989372253419 L 343.9542846679687,276.34357452392584 L 346.7055358886719,271.998146057129 L 349.8020706176757,267.8916168212896 L 353.22325134277344,264.0513572692869 L 356.9462814331054,260.50295639038166 L 360.94635009765625,257.27006530761696 L 365.196792602539,254.37423133850098 L 369.6692810058594,251.83475303649834 L 374.33400726318354,249.66855430603056 L 379.15988922119135,247.89007568359457 L 384.1147537231445,246.5111656188977 L 389.1655883789063,245.5410175323473 L 394.27873229980463,244.98609733581517 L 500.6220550537108,237.82096099853513 L 502.59549787463396,237.82096099853513 L 504.4627532958983,236.76733875275852 L 506.14935302734375,235.68996715546538 L 507.58763122558594,234.2983193397511 L 508.720001220703,232.6481361389105 L 509.50109863281244,230.80551338195698 L 509.8996276855468,228.8442546129231 L 509.8996276855468,226.84291529655542 L 509.50109863281244,224.8816561698944 L 508.720001220703,223.03903293609528 L 507.58764648437494,221.38884925842325 L 506.14935302734375,219.9972004890446 L 504.4627532958983,218.91982746124256 L 502.5953826904296,218.1998834609974 L 500.6220703125,217.86620330810518 L 394.27870178222656,210.70106697082457 L 389.1655731201172,210.14614295959518 L 384.1147384643555,209.1759948730474 L 379.15987396240234,207.7970848083492 L 374.3339920043945,206.0186042785645 L 369.66926574707026,203.85240554809496 L 365.19677734375,201.3129272460933 L 360.94633483886724,198.41709136962942 L 356.9462738037108,195.18420028686495 L 353.22324371337885,191.63579940795887 L 349.8020629882812,187.79553985595692 L 346.7055282592773,183.68901062011702 L 343.9542770385743,179.34358215332054 L 341.56665039062494,174.7882194519044 L 339.5585632324219,170.05327606201178 L 337.94338989257807,165.1703147888182 L 336.73189544677734,160.17187499999994 L 335.93216705322266,155.09127807617193 L 335.54951477050776,149.96237182617182 L 335.58650970458984,144.8193435668946 L 336.0428924560547,139.69647216796875 L 336.9156188964844,134.62789154052712 L 338.1988830566407,129.6473999023438 L 339.8841247558594,124.78817749023438 L 341.9601135253906,120.08261108398443 L 388.9266052246094,24.403991699218636 L 389.6242828369141,22.528198242187557 L 389.9344787597656,20.55104064941395 L 389.8447570800781,18.55171203613287 L 389.3586883544922,16.610305786132812 L 388.49577331542963,14.804550170898267 L 387.2905578613281,13.206802368164062 L 385.79132080078125,11.881027221679744 L 384.0581130981445,10.88037109374983 L 382.1603469848633,10.244873046874943 L 380.1740493774414,10.0 L 378.1787643432617,10.155563354492301 L 376.25441741943354,10.705337524414062 L 374.4780807495117,11.627288818359318 L 372.92091369628906,12.88450622558588 L 371.64527893066406,14.426605224609375 L 304.36864852905273,114.71630859374989 L 302.69960021972656,116.80212402343744 L 300.705337524414,118.57955169677712 L 298.4419975280762,119.99858093261724 L 295.97328186035156,121.01924896240229 L 293.36867141723627,121.61284637451178 L 290.70148277282715,121.76266479492188 L 288.04678344726557,121.46446990966791 L 285.4792957305908,120.72667694091797 L 283.07128143310547,119.57003784179676 L 280.89052200317377,118.02710723876953 L 278.99839210510254,116.14131927490223 L 277.44815254211426,113.96575164794922 L 276.28343391418457,111.56163787841803 L 275.0697145462036,109.03230285644526 L 273.46741104125977,106.72942352294928 L 271.517704963684,104.712173461914 L 269.2707042694092,103.03240203857416 L 266.784155368805,101.73328399658214 L 264.12196350097656,100.84819793701166 L 261.3525471687317,100.39989471435541 L 258.5470806360245,100.39989471435541 L 255.77766418457028,100.84819793701166 L 253.11547279357907,101.73328399658203 L 250.62892341613767,103.03240203857416 L 248.3819227218628,104.712173461914 L 246.43221664428708,106.72942352294922 L 244.82991313934326,109.03230285644526 L 243.6161937713623,111.56163787841797 L 242.45147514343262,113.96575164794922 L 240.90123558044425,116.14131927490223 L 239.00910568237305,118.02710723876947 L 236.82834625244138,119.57003784179682 L 234.42033195495603,120.72667694091797 L 231.85284423828125,121.46446990966797 L 229.1981449127197,121.76266479492188 L 226.5309562683106,121.61284637451172 L 223.9263458251953,121.01924896240234 L 221.45763015747067,119.99858093261713 L 219.19428634643552,118.57955169677729 L 217.20002746582028,116.80212402343744 L 215.5309791564941,114.71630859374989 L 148.2543487548828,14.426605224609432 L 146.97871398925778,12.88450622558588 L 145.42154693603513,11.627288818359318 L 143.64521026611328,10.705337524414062 L 141.72086334228513,10.155563354492188 L 139.7255783081055,10.0 L 137.7392807006836,10.244873046874943 L 135.84151458740234,10.88037109375 L 134.1083068847656,11.881027221679574 L 132.60906982421875,13.206802368164006 L 131.4038543701172,14.80455017089838 L 130.54093933105463,16.610305786132812 L 130.0548706054687,18.551712036132812 L 129.96514892578122,20.551040649414006 L 130.2753448486328,22.528198242187386 L 130.97302246093747,24.40399169921875 L 177.93951416015625,120.08261108398432 L 180.0155029296875,124.78817749023432 L 181.70074462890625,129.64739990234375 L 182.98400878906247,134.6278915405273 L 183.8567352294922,139.69647216796875 L 184.313117980957,144.81934356689453 L 184.35011291503906,149.9623641967773 L 183.96746063232422,155.09127044677734 L 183.1677322387695,160.17187499999994 L 181.95623779296872,165.1703147888183 L 180.34106445312497,170.0532760620116 L 178.33297729492185,174.78821945190424 L 175.94535064697263,179.3435821533203 L 173.19409942626953,183.6890106201172 L 170.09756469726562,187.79553604125977 L 166.67638397216797,191.63579940795893 L 162.95335388183594,195.18420028686518 L 158.9532928466797,198.4170913696289 L 154.70285034179688,201.31292533874512 L 150.23036193847653,203.85240554809565 L 145.56563568115234,206.01860237121582 L 140.73976135253906,207.79708290100086 L 135.78488922119138,209.17599296569819 L 130.7340545654297,210.14614295959467 L 125.62092590332028,210.70106697082514 L 19.277557373046882,217.8662033081054 L 17.304244995117173,218.19988346099854 L 15.436874389648452,218.91982746124262 L 13.750274658203098,219.99720001220697 L 12.311981201171886,221.38884782791138 L 11.17962646484376,223.03903150558466 L 10.39852905273435,224.88165402412412 L 10.000000000000004,226.84291267395017 L 10.0,228.84425163269037 L 10.39852905273435,230.80551028251642 L 11.179626464843754,232.64813280105588 L 12.311981201171886,234.2983164787292 L 13.7502746582031,235.68996429443357 L 15.43687438964845,236.7673368453979 L 17.304244995117177,237.48728084564203 L 19.277557373046882,237.82096099853513 M 378.5355987548828,437.10389709472634 L 378.21776580810547,436.6896820068357 L 378.01795959472656,436.2073211669921 L 377.9498138427734,435.6896820068358 L 378.01795959472656,435.1720428466796 L 378.21776580810547,434.6896820068359 L 378.5355987548828,434.27546691894514 L 378.94981384277344,433.95762634277355 L 379.4321746826172,433.75782775878895 L 379.9498138427734,433.6896820068358 L 380.46745300292974,433.75782775878906 L 380.94981384277344,433.9576263427733 L 381.36402893066406,434.2754669189453 L 381.6818618774414,434.68968200683594 L 381.88166809082026,435.1720428466796 L 381.94981384277344,435.6896820068357 L 381.88166809082026,436.2073211669921 L 381.68186187744135,436.6896820068358 L 381.36402893066406,437.10389709472645 L 380.94981384277344,437.4217224121093 L 380.4674530029297,437.62153625488276 L 379.9498138427734,437.68968200683594 L 379.4321746826172,437.62153625488276 L 378.9498138427734,437.4217224121095 L 378.5355987548828,437.10389709472634 M 310.54406356811523,298.12013244628884 L 312.8170852661132,298.72918701171875 L 314.94981384277344,299.72369384765614 L 316.87744522094727,301.07343292236317 L 318.54141235351557,302.7374038696292 L 319.8911552429199,304.66503143310547 L 320.8856658935547,306.7977600097657 L 321.49471664428705,309.0707855224611 L 321.69981384277344,311.4150314331056 L 321.49471664428705,313.7592849731444 L 320.8856658935547,316.0323028564453 L 319.8911552429199,318.16503143310547 L 318.5414123535156,320.09266662597656 L 316.87744522094727,321.75662994384743 L 314.94981384277344,323.1063766479491 L 312.8170852661132,324.1008834838865 L 310.54406356811523,324.70993804931635 L 308.1998138427734,324.9150314331056 L 305.85556411743164,324.7099380493163 L 303.58254241943365,324.1008834838865 L 301.44981384277344,323.1063766479492 L 299.5221824645996,321.75662994384766 L 297.8582153320313,320.09266662597656 L 296.50847244262695,318.16503143310547 L 295.51396179199213,316.03230285644526 L 294.90491104125977,313.7592849731444 L 294.69981384277344,311.4150314331055 L 294.9049110412598,309.0707855224607 L 295.51396179199213,306.7977600097656 L 296.50847244262695,304.66503143310536 L 297.85821533203125,302.73740386962885 L 299.52218246459955,301.0734329223634 L 301.44981384277344,299.72369384765614 L 303.5825424194336,298.72918701171864 L 305.85556411743164,298.120132446289 L 308.19981384277344,297.9150314331053 L 310.54406356811523,298.12013244628884 M 500.94981384277344,226.11153137684096 L 501.36402893066406,226.42936861515048 L 501.6818695068358,226.84358215332193 L 501.8816680908202,227.32594406604755 L 501.9498138427734,227.84358215332225 L 501.8816680908202,228.36122024059185 L 501.6818695068358,228.84358215331923 L 501.36402893066406,229.25779569148733 L 500.94981384277344,229.57563292980112 L 500.4674530029296,229.77543377876088 L 499.9498138427733,229.84358215332193 L 499.4321746826172,229.77543377876395 L 498.9498138427733,229.57563292980407 L 498.5355987548827,229.25779569149367 L 498.21775817871094,228.84358215332216 L 498.01795959472656,228.3612202405926 L 497.9498138427734,227.84358215332068 L 498.01795959472656,227.32594406604855 L 498.21775817871094,226.84358215332017 L 498.53559875488287,226.42936861515093 L 498.9498138427733,226.11153137683627 L 499.4321746826172,225.91173052787852 L 499.9498138427733,225.84358215332068 L 500.4674530029296,225.9117305278778 L 500.94981384277344,226.11153137684096 M 342.9498138427734,227.84358215331952 L 343.1549072265625,225.49933171272244 L 343.76396179199213,223.22631025314266 L 344.7584686279297,221.09358215332043 L 346.10821533203125,219.16594982147268 L 347.77217864990234,217.50198173522972 L 349.6998138427734,216.1522388458248 L 351.8325424194336,215.1577320098878 L 354.1055603027344,214.54867744445778 L 356.4498138427734,214.34358215332026 L 358.7940673828125,214.5486774444579 L 361.06708526611334,215.15773200988798 L 363.19981384277344,216.1522388458261 L 365.12744903564453,217.5019817352296 L 366.7914123535156,219.1659498214721 L 368.1411590576171,221.09358215331923 L 369.1356658935547,223.22631025314396 L 369.7447204589844,225.49933171272204 L 369.9498138427734,227.84358215332023 L 369.74472045898443,230.18783259391918 L 369.1356658935547,232.46085405349896 L 368.1411590576172,234.59358215332514 L 366.7914123535156,236.52121448516675 L 365.12744903564453,238.18518257141363 L 363.1998138427734,239.53492546082506 L 361.0670852661133,240.52943229674725 L 358.7940673828125,241.13848686218694 L 356.4498138427734,241.34358215331994 L 354.10556030273443,241.1384868621813 L 351.83254241943354,240.5294322967582 L 349.6998138427734,239.53492546081574 L 347.77217864990234,238.1851825714127 L 346.1082153320312,236.5212144851625 L 344.75846862792963,234.59358215331818 L 343.76396179199213,232.46085405349763 L 343.1549072265625,230.18783259391788 L 342.9498138427734,227.84358215331952 M 294.90491104125977,141.92787933349615 L 295.51396179199213,139.65486145019526 L 296.50847244262695,137.52213287353527 L 297.8582153320312,135.5944976806639 L 299.5221824645996,133.93053436279303 L 301.44981384277344,132.5807876586914 L 303.5825424194336,131.5862808227539 L 305.85556411743164,130.97722625732428 L 308.19981384277344,130.7721328735351 L 310.54406356811523,130.97722625732422 L 312.8170852661132,131.5862808227538 L 314.94981384277344,132.58078765869152 L 316.87744522094727,133.93053436279286 L 318.5414123535157,135.59449768066418 L 319.8911552429199,137.5221328735351 L 320.8856658935547,139.65486145019537 L 321.49471664428705,141.92787933349598 L 321.69981384277344,144.27213287353516 L 321.49471664428705,146.61637878417957 L 320.8856658935547,148.8894042968749 L 319.8911552429199,151.0221328735351 L 318.5414123535156,152.9497604370116 L 316.8774452209472,154.61373138427717 L 314.9498138427734,155.96347045898432 L 312.8170852661132,156.95797729492182 L 310.54406356811523,157.5670318603514 L 308.19981384277344,157.7721328735352 L 305.85556411743164,157.56703186035145 L 303.58254241943365,156.95797729492193 L 301.44981384277344,155.96347045898432 L 299.5221824645996,154.6137313842774 L 297.8582153320312,152.9497604370115 L 296.5084724426269,151.02213287353504 L 295.51396179199213,148.88940429687494 L 294.90491104125977,146.6163787841797 L 294.6998138427734,144.27213287353504 L 294.90491104125977,141.92787933349615 M 261.39870262145996,129.95535278320318 L 261.44981384277344,130.3435821533203 L 261.39870262145996,130.73181152343756 L 261.24885189533234,131.09358215332026 L 261.0104739665985,131.40424346923817 L 260.69981384277344,131.6426239013672 L 260.3380424082279,131.79247283935536 L 259.94981384277344,131.8435821533202 L 259.56158527731895,131.79247283935547 L 259.19981384277344,131.6426239013672 L 258.88915371894836,131.40424346923828 L 258.65077579021454,131.0935821533203 L 258.5009250640869,130.73181152343744 L 258.44981384277344,130.3435821533203 L 258.5009250640869,129.95535278320307 L 258.65077579021454,129.5935821533202 L 258.88915371894836,129.2829208374024 L 259.19981384277344,129.04454040527338 L 259.56158527731895,128.8946914672851 L 259.9498138427734,128.8435821533202 L 260.3380424082279,128.8946914672851 L 260.69981384277344,129.0445404052735 L 261.0104739665985,129.28292083740223 L 261.24885189533234,129.5935821533203 L 261.39870262145996,129.95535278320318 M 172.12744903564453,238.18518257141434 L 170.19981384277344,239.5349254608153 L 168.06708526611328,240.52943229675313 L 165.7940673828125,241.13848686218165 L 163.44981384277344,241.34358215332 L 161.10556030273438,241.1384868621815 L 158.8325424194336,240.52943229675296 L 156.6998138427734,239.53492546081554 L 154.77217864990234,238.18518257141164 L 153.10821533203122,236.5212144851677 L 151.7584686279297,234.5935821533207 L 150.7639617919922,232.46085405349743 L 150.15490722656247,230.18783259391756 L 149.9498138427734,227.84358215332023 L 150.15490722656247,225.49933171272258 L 150.7639617919922,223.22631025314314 L 151.7584686279297,221.0935821533203 L 153.10821533203122,219.1659498214721 L 154.77217864990234,217.50198173522944 L 156.6998138427734,216.15223884582514 L 158.8325424194336,215.1577320098877 L 161.10556030273435,214.54867744445806 L 163.4498138427734,214.3435821533202 L 165.7940673828125,214.54867744445818 L 168.06708526611325,215.15773200988752 L 170.19981384277344,216.15223884582514 L 172.12744903564453,217.5019817352295 L 173.79141235351562,219.16594982147228 L 175.1411590576172,221.09358215332037 L 176.1356658935547,223.22631025314342 L 176.74472045898435,225.49933171272278 L 176.94981384277344,227.84358215332037 L 176.74472045898435,230.18783259391813 L 176.1356658935547,232.46085405349757 L 175.1411590576172,234.5935821533204 L 173.7914123535156,236.5212144851685 L 172.12744903564453,238.18518257141434 M 214.04406356811523,298.12013244628906 L 216.31708526611328,298.72918701171864 L 218.44981384277344,299.72369384765614 L 220.37744522094727,301.07343292236317 L 222.0414123535156,302.7374038696289 L 223.39115524291992,304.66503143310536 L 224.3856658935547,306.79776000976574 L 224.9947166442871,309.0707855224608 L 225.19981384277344,311.4150314331054 L 224.9947166442871,313.7592849731444 L 224.3856658935547,316.03230285644526 L 223.39115524291992,318.16503143310536 L 222.0414123535156,320.09266662597656 L 220.3774452209472,321.7566299438476 L 218.44981384277344,323.1063766479491 L 216.31708526611328,324.1008834838867 L 214.04406356811523,324.70993804931635 L 211.69981384277344,324.9150314331054 L 209.35556411743164,324.70993804931624 L 207.0825424194336,324.1008834838867 L 204.94981384277344,323.1063766479491 L 203.0221824645996,321.7566299438476 L 201.35821533203122,320.09266662597656 L 200.00847244262695,318.16503143310536 L 199.0139617919922,316.03230285644526 L 198.40491104125977,313.7592849731445 L 198.19981384277347,311.41503143310536 L 198.40491104125974,309.07078552246094 L 199.0139617919922,306.7977600097656 L 200.00847244262692,304.6650314331054 L 201.35821533203128,302.7374038696288 L 203.0221824645996,301.0734329223633 L 204.9498138427734,299.72369384765625 L 207.08254241943362,298.72918701171864 L 209.35556411743167,298.12013244628895 L 211.69981384277344,297.9150314331054 L 214.04406356811523,298.12013244628906 M 223.39115524291992,137.5221328735351 L 224.3856658935547,139.65486145019526 L 224.9947166442871,141.92787933349604 L 225.19981384277344,144.2721328735351 L 224.9947166442871,146.6163787841797 L 224.3856658935547,148.889404296875 L 223.39115524291992,151.0221328735351 L 222.0414123535156,152.94976043701166 L 220.37744522094727,154.6137313842773 L 218.44981384277344,155.96347045898432 L 216.31708526611328,156.95797729492182 L 214.04406356811518,157.5670318603515 L 211.69981384277344,157.7721328735352 L 209.35556411743164,157.5670318603515 L 207.0825424194336,156.95797729492182 L 204.94981384277344,155.96347045898438 L 203.0221824645996,154.61373138427723 L 201.35821533203125,152.94976043701172 L 200.00847244262692,151.0221328735351 L 199.0139617919922,148.88940429687494 L 198.4049110412598,146.61637878417974 L 198.1998138427734,144.2721328735351 L 198.4049110412598,141.9278793334961 L 199.0139617919922,139.65486145019526 L 200.00847244262695,137.52213287353516 L 201.35821533203125,135.59449768066406 L 203.02218246459964,133.9305343627929 L 204.94981384277344,132.5807876586914 L 207.08254241943357,131.5862808227538 L 209.35556411743164,130.97722625732416 L 211.69981384277344,130.7721328735351 L 214.04406356811518,130.97722625732416 L 216.31708526611328,131.5862808227538 L 218.44981384277344,132.5807876586914 L 220.37744522094727,133.9305343627929 L 222.0414123535156,135.59449768066406 L 223.39115524291992,137.5221328735351 M 138.21776580810544,18.99748229980463 L 138.5355987548828,18.583267211914062 L 138.94981384277347,18.26544189453125 L 139.43217468261716,18.065628051757756 L 139.9498138427734,17.997482299804688 L 140.46745300292966,18.0656280517577 L 140.94981384277344,18.26544189453125 L 141.364028930664,18.583267211914006 L 141.68186187744143,18.99748229980463 L 141.8816680908203,19.479843139648494 L 141.94981384277344,19.997482299804688 L 141.88166809082034,20.515121459960994 L 141.68186187744138,20.99748229980463 L 141.3640289306641,21.411697387695256 L 140.9498138427734,21.72953796386713 L 140.46745300292963,21.92933654785145 L 139.94981384277344,21.997482299804688 L 139.43217468261722,21.92933654785145 L 138.94981384277344,21.72953796386713 L 138.5355987548828,21.411697387695256 L 138.21776580810544,20.997482299804744 L 138.01795959472653,20.51512145996088 L 137.94981384277344,19.997482299804688 L 138.01795959472653,19.479843139648494 L 138.21776580810544,18.99748229980463 M 247.83804225921628,116.39469146728516 L 248.19981384277347,116.54454040527344 L 248.51047420501706,116.78292083740223 L 248.74885177612302,117.09358215332026 L 248.89870262146002,117.45535278320312 L 248.94981384277344,117.84358215332026 L 248.89870262145996,118.23181152343744 L 248.74885177612302,118.59358215332037 L 248.51047420501706,118.90424346923822 L 248.19981384277344,119.14262390136707 L 247.83804225921628,119.29247283935541 L 247.44981384277344,119.34358215332037 L 247.06158542633057,119.29247283935541 L 246.6998138427734,119.14262390136713 L 246.38915348052979,118.90424346923817 L 246.15077590942383,118.59358215332026 L 246.00092506408689,118.23181152343744 L 245.9498138427734,117.84358215332026 L 246.00092506408689,117.45535278320307 L 246.15077590942383,117.09358215332026 L 246.38915348052979,116.78292083740223 L 246.6998138427734,116.54454040527344 L 247.06158542633057,116.39469146728516 L 247.44981384277344,116.34358215332031 L 247.83804225921628,116.39469146728516 M 261.44981384277344,105.34358215332026 L 261.39870262145996,105.73181152343744 L 261.24885189533234,106.09358215332031 L 261.0104739665985,106.40424346923817 L 260.69981384277344,106.64262390136713 L 260.3380424082279,106.79247283935536 L 259.94981384277344,106.8435821533202 L 259.56158527731895,106.79247283935536 L 259.19981384277344,106.64262390136707 L 258.88915371894836,106.40424346923822 L 258.65077579021454,106.09358215332031 L 258.5009250640869,105.73181152343744 L 258.44981384277344,105.3435821533202 L 258.5009250640869,104.95535278320312 L 258.65077579021454,104.59358215332031 L 258.88915371894836,104.2829208374024 L 259.19981384277344,104.04454040527338 L 259.56158527731895,103.8946914672851 L 259.94981384277344,103.84358215332026 L 260.3380424082279,103.8946914672851 L 260.69981384277344,104.04454040527344 L 261.0104739665985,104.28292083740229 L 261.24885189533234,104.59358215332031 L 261.39870262145996,104.95535278320307 L 261.44981384277344,105.34358215332026 M 264.3582034111023,111.77595520019526 L 265.65285873413086,112.97272491455072 L 266.6323628425598,114.43865203857428 L 267.2425880432129,116.09274291992182 L 267.4498138427734,117.84358215332026 L 267.19425773620605,119.7847213745116 L 266.4450044631958,121.59358215332031 L 265.2531147003174,123.14688110351562 L 263.69981384277344,124.33877563476557 L 261.89095664024353,125.08802795410156 L 259.9498138427734,125.34358215332026 L 258.1989736557007,125.13636016845703 L 256.5448851585388,124.52613067626942 L 255.07895326614377,123.54662322998041 L 253.88218641281125,122.25196838378906 L 253.02071714401245,120.71370697021479 L 252.5421514511108,119.01683807373041 L 252.47293376922602,117.25514221191395 L 252.81688976287842,115.52595520019531 L 253.5550127029419,113.92484283447266 L 254.6465129852295,112.540283203125 L 256.0310745239258,111.44878387451166 L 257.6321864128113,110.71065521240229 L 259.3613706231117,110.36669921874989 L 261.12307238578796,110.43592071533203 L 262.8199396133423,110.91448211669922 L 264.3582034111023,111.77595520019526 M 272.0615854263305,116.39469146728504 L 272.44981384277344,116.34358215332026 L 272.8380422592163,116.3946914672851 L 273.19981384277344,116.54454040527344 L 273.51047420501703,116.78292083740234 L 273.74885177612305,117.09358215332026 L 273.89870262145996,117.45535278320307 L 273.94981384277344,117.84358215332026 L 273.89870262145996,118.2318115234375 L 273.74885177612305,118.59358215332026 L 273.51047420501703,118.90424346923822 L 273.19981384277344,119.14262390136724 L 272.8380422592163,119.29247283935541 L 272.4498138427734,119.34358215332026 L 272.06158542633057,119.29247283935541 L 271.6998138427734,119.14262390136707 L 271.3891534805298,118.90424346923822 L 271.1507759094238,118.59358215332026 L 271.00092506408686,118.23181152343739 L 270.9498138427734,117.84358215332031 L 271.0009250640869,117.45535278320318 L 271.1507759094238,117.09358215332031 L 271.3891534805298,116.78292083740229 L 271.6998138427734,116.54454040527327 L 272.0615854263305,116.39469146728504 M 380.9498138427735,18.26544189453125 L 381.36402893066406,18.583267211913892 L 381.6818618774414,18.997482299804744 L 381.88166809082026,19.47984313964838 L 381.94981384277344,19.997482299804744 L 381.88166809082026,20.515121459960994 L 381.6818618774414,20.997482299804744 L 381.36402893066406,21.4116973876952 L 380.94981384277344,21.72953796386713 L 380.4674530029297,21.929336547851676 L 379.9498138427734,21.997482299804688 L 379.4321746826172,21.92933654785145 L 378.94981384277344,21.729537963867188 L 378.5355987548828,21.41169738769537 L 378.21776580810547,20.997482299804517 L 378.01795959472656,20.51512145996088 L 377.9498138427734,19.997482299804574 L 378.01795959472656,19.47984313964838 L 378.21776580810547,18.99748229980463 L 378.5355987548828,18.583267211914062 L 378.94981384277344,18.26544189453125 L 379.4321746826172,18.06562805175787 L 379.9498138427734,17.997482299804688 L 380.4674530029297,18.06562805175787 L 380.9498138427735,18.26544189453125 M 309.66566467285156,266.53898239135714 L 306.30041885375977,270.5123214721681 L 302.6185531616211,274.19418716430664 L 298.64521408081055,277.5594329833982 L 294.4075469970703,280.58507156372025 L 289.9344997406006,283.25042724609364 L 285.2566261291504,285.5373001098634 L 280.40587997436523,287.43006896972656 L 275.4153995513916,288.91579818725586 L 270.3192729949951,289.9843444824219 L 265.1523127555847,290.62840652465826 L 259.94981384277344,290.8435821533201 L 254.92328929901123,290.64273834228516 L 249.92881393432617,290.0414886474608 L 244.99823188781735,289.0436668395995 L 240.16298103332517,287.6556320190429 L 235.45388984680173,285.8862380981446 L 230.9009857177734,283.7467613220215 L 226.5332984924316,281.2508506774901 L 222.37866973876953,278.41441345214844 L 218.46359634399414,275.2555389404297 L 214.81303787231442,271.7943687438964 L 211.45027160644528,268.0529670715332 L 208.3967399597168,264.0551872253419 L 205.67190551757812,259.8265266418457 L 203.29314804077146,255.393943786621 L 201.27563476562497,250.78569793701175 L 199.63222503662107,246.03117561340372 L 198.37340164184567,241.1606874465935 L 197.5071868896484,236.20529079437068 L 197.0391044616699,231.19657921791068 L 196.97214126586914,226.16648924350744 L 197.30672073364258,221.14709234237694 L 198.04071426391602,216.17039299011242 L 199.1694374084473,211.26811981201183 L 200.68569564819336,206.47153282165522 L 202.57982254028317,201.81121444702137 L 204.83974075317386,197.3168773651123 L 207.4510383605957,193.017177581787 L 210.39706420898438,188.93953323364258 L 213.65904235839844,185.109935760498 L 217.21616744995117,181.55281066894526 L 221.04576492309576,178.2908325195313 L 225.1234092712402,175.34480667114252 L 229.4231090545654,172.7335090637206 L 233.91744613647458,170.47359085083013 L 238.5777645111084,168.57946395874006 L 243.37435150146482,167.06320571899414 L 248.27662467956543,165.9344825744629 L 253.2533240318298,165.2004890441894 L 258.2727209329605,164.86590957641596 L 263.3028109073639,164.93287277221668 L 268.3115224838257,165.4009552001952 L 273.2669191360473,166.26716995239263 L 278.1374073028564,167.5259933471679 L 282.89192962646484,169.16940307617176 L 287.5001754760742,171.18691635131813 L 291.9327583312988,173.565673828125 L 296.1614189147949,176.29050827026356 L 300.15919876098627,179.34403991699224 L 303.90060043334955,182.70680618286138 L 307.3617706298828,186.3573646545414 L 310.52064514160156,190.27243804931607 L 313.35708236694336,194.42706680297823 L 315.8529930114746,198.7947540283207 L 317.99246978759766,203.34765815734846 L 319.76186370849604,208.05674934387218 L 321.14989852905273,212.89200019836414 L 322.147720336914,217.82258224487236 L 322.7489700317383,222.81705760955808 L 322.94981384277344,227.84358215331991 L 322.7346382141113,233.0460810661314 L 322.09057617187494,238.21304130554395 L 321.022029876709,243.3091678619367 L 319.53630065917963,248.29964828491134 L 317.6435317993164,253.15039443969826 L 315.3566589355468,257.82826805114775 L 312.6913032531738,262.3013153076168 L 309.66566467285156,266.53898239135714 M 141.6818618774414,436.6896820068358 L 141.36402893066406,437.1038970947265 L 140.9498138427734,437.4217224121094 L 140.46745300292966,437.62153625488276 L 139.94981384277344,437.68968200683594 L 139.4321746826172,437.62153625488276 L 138.94981384277344,437.4217224121094 L 138.5355987548828,437.10389709472645 L 138.21776580810544,436.6896820068359 L 138.01795959472656,436.20732116699213 L 137.94981384277338,435.6896820068358 L 138.01795959472653,435.17204284667963 L 138.21776580810544,434.6896820068358 L 138.5355987548828,434.2754669189452 L 138.9498138427734,433.9576263427734 L 139.4321746826172,433.75782775878906 L 139.94981384277344,433.6896820068359 L 140.4674530029297,433.75782775878906 L 140.9498138427734,433.9576263427734 L 141.36402893066406,434.27546691894526 L 141.6818618774414,434.6896820068359 L 141.8816680908203,435.17204284667963 L 141.94981384277344,435.6896820068358 L 141.8816680908203,436.2073211669922 L 141.6818618774414,436.6896820068358 M 21.881668090820295,227.3259440660476 L 21.949813842773445,227.84358215332028 L 21.8816680908203,228.36122024059293 L 21.681869506835938,228.84358215332026 L 21.36402893066404,229.25779569149012 L 20.949813842773445,229.5756329298019 L 20.4674530029297,229.7754337787628 L 19.949813842773448,229.84358215332026 L 19.432174682617195,229.7754337787628 L 18.94981384277345,229.5756329298019 L 18.535598754882812,229.25779569149012 L 18.217758178710913,228.84358215332026 L 18.017959594726555,228.36122024059293 L 17.94981384277345,227.84358215332028 L 18.017959594726555,227.3259440660476 L 18.217758178710916,226.84358215332028 L 18.535598754882812,226.42936861515042 L 18.94981384277345,226.11153137683863 L 19.432174682617195,225.91173052787775 L 19.949813842773448,225.84358215332028 L 20.4674530029297,225.91173052787775 L 20.949813842773445,226.11153137683863 L 21.36402893066404,226.42936861515042 L 21.681869506835938,226.84358215332028 L 21.881668090820295,227.3259440660476 "
  />
  <path id="face0-interior"
 style="fill:none;stroke:#00FF00;stroke-width:1;stroke-miterlimit:4;stroke-dasharray:none;stroke-linejoin:round;stroke-linecap:round"
        d="M 19.277557373046882,237.82096099853513 M 125.62092590332028,244.98609733581551 M 130.7340545654297,245.54102134704564 M 135.78488922119138,246.51116943359375 M 140.7397537231445,247.89007949829102 M 145.56563568115234,249.6685600280762 M 150.23036193847653,251.83475875854472 M 154.70285034179688,254.37423896789562 M 158.95329284667966,257.2700729370116 M 162.95335388183594,260.5029640197753 M 166.67638397216797,264.0513648986816 M 170.09756469726562,267.89162826538086 M 173.19409942626953,271.99815368652344 M 175.94535064697263,276.3435821533202 M 178.33297729492188,280.8989448547362 M 180.34106445312497,285.6338882446289 M 181.95623779296872,290.51684951782227 M 183.16773223876953,295.5152893066405 M 183.96746063232422,300.5958938598633 M 184.35011291503906,305.7248001098633 M 184.31311798095703,310.8678283691405 M 183.8567352294922,315.99069976806635 M 182.98400878906247,321.0592727661132 M 181.70074462890625,326.03976440429676 M 180.0155029296875,330.89898681640614 M 177.93951416015625,335.6045608520508 M 130.97302246093747,431.2831726074218 M 130.2753448486328,433.158966064453 M 129.96514892578125,435.13612365722645 M 130.0548706054687,437.1354522705078 M 130.54093933105466,439.07685852050776 M 131.4038543701172,440.88261413574213 M 132.60906982421875,442.4803619384765 M 134.10830688476557,443.8061370849608 M 135.8415145874023,444.8067932128906 M 137.73928070068354,445.44229125976557 M 139.72557830810544,445.68716430664057 M 141.72086334228516,445.53160095214844 M 143.64521026611334,444.9818267822265 M 145.42154693603516,444.05987548828125 M 146.97871398925778,442.80265808105463 M 148.2543487548828,441.26055908203114 M 207.6312255859375,352.74707031249994 M 210.66837310791018,348.59642028808594 M 214.0339660644531,344.7073440551758 M 217.70557022094724,341.1057586669922 M 221.6587219238281,337.81566619873047 M 225.867073059082,334.85899353027344 M 230.30257225036618,332.2554473876953 M 234.93566131591797,330.0223693847655 M 239.7354640960693,328.17465972900385 M 244.6699867248535,326.72462463378906 M 249.7063446044922,325.6819305419921 M 254.8109731674194,325.05352020263666 M 259.9498496785127,324.8435821533203 M 265.0887260437012,325.0535202026366 M 270.1933536529541,325.6819381713866 M 275.22971057891846,326.72463989257795 M 280.1642322540283,328.1746826171874 M 284.9640312194824,330.02239990234364 M 289.59711837768555,332.2554779052733 M 294.0326156616211,334.8590316772461 M 298.24096298217773,337.81571197509743 M 302.1941108703613,341.1058120727537 M 305.8657112121582,344.7073974609375 M 309.2313003540039,348.5964813232421 M 312.2684440612793,352.74713134765614 M 371.645278930664,441.2605590820311 M 372.92091369628906,442.8026580810546 M 374.4780807495117,444.0598754882813 M 376.25441741943354,444.9818267822266 M 378.1787643432617,445.53160095214844 M 380.1740493774414,445.6871643066404 M 382.1603469848633,445.4422912597656 M 384.0581130981445,444.8067932128905 M 385.79132080078125,443.8061370849608 M 387.2905578613281,442.4803619384765 M 388.49577331542963,440.8826141357422 M 389.35868835449224,439.0768585205077 M 389.8447570800781,437.1354522705078 M 389.9344787597656,435.13612365722634 M 389.62428283691406,433.15896606445307 M 388.9266052246094,431.2831726074219 M 341.9601135253906,335.6045608520508 M 339.8841247558593,330.89898681640625 M 338.1988830566406,326.03976440429676 M 336.9156188964844,321.05926513671875 M 336.0428848266601,315.990692138672 M 335.5865097045898,310.8678207397463 M 335.54951477050776,305.72479248046864 M 335.93216705322266,300.5958862304684 M 336.73189544677734,295.51528167724604 M 337.9433898925781,290.5168418884276 M 339.5585632324219,285.63388061523426 M 341.56665802001953,280.8989372253419 M 343.9542846679687,276.34357452392584 M 346.7055358886719,271.998146057129 M 349.8020706176757,267.8916168212896 M 353.22325134277344,264.0513572692869 M 356.9462814331054,260.50295639038166 M 360.94635009765625,257.27006530761696 M 365.196792602539,254.37423133850098 M 369.6692810058594,251.83475303649834 M 374.33400726318354,249.66855430603056 M 379.15988922119135,247.89007568359457 M 384.1147537231445,246.5111656188977 M 389.1655883789063,245.5410175323473 M 394.27873229980463,244.98609733581517 M 500.6220550537108,237.82096099853513 M 502.59549787463396,237.82096099853513 M 504.4627532958983,236.76733875275852 M 506.14935302734375,235.68996715546538 M 507.58763122558594,234.2983193397511 M 508.720001220703,232.6481361389105 M 509.50109863281244,230.80551338195698 M 509.8996276855468,228.8442546129231 M 509.8996276855468,226.84291529655542 M 509.50109863281244,224.8816561698944 M 508.720001220703,223.03903293609528 M 507.58764648437494,221.38884925842325 M 506.14935302734375,219.9972004890446 M 504.4627532958983,218.91982746124256 M 502.5953826904296,218.1998834609974 M 500.6220703125,217.86620330810518 M 394.27870178222656,210.70106697082457 M 389.1655731201172,210.14614295959518 M 384.1147384643555,209.1759948730474 M 379.15987396240234,207.7970848083492 M 374.3339920043945,206.0186042785645 M 369.66926574707026,203.85240554809496 M 365.19677734375,201.3129272460933 M 360.94633483886724,198.41709136962942 M 356.9462738037108,195.18420028686495 M 353.22324371337885,191.63579940795887 M 349.8020629882812,187.79553985595692 M 346.7055282592773,183.68901062011702 M 343.9542770385743,179.34358215332054 M 341.56665039062494,174.7882194519044 M 339.5585632324219,170.05327606201178 M 337.94338989257807,165.1703147888182 M 336.73189544677734,160.17187499999994 M 335.93216705322266,155.09127807617193 M 335.54951477050776,149.96237182617182 M 335.58650970458984,144.8193435668946 M 336.0428924560547,139.69647216796875 M 336.9156188964844,134.62789154052712 M 338.1988830566407,129.6473999023438 M 339.8841247558594,124.78817749023438 M 341.9601135253906,120.08261108398443 M 388.9266052246094,24.403991699218636 M 389.6242828369141,22.528198242187557 M 389.9344787597656,20.55104064941395 M 389.8447570800781,18.55171203613287 M 389.3586883544922,16.610305786132812 M 388.49577331542963,14.804550170898267 M 387.2905578613281,13.206802368164062 M 385.79132080078125,11.881027221679744 M 384.0581130981445,10.88037109374983 M 382.1603469848633,10.244873046874943 M 380.1740493774414,10.0 M 378.1787643432617,10.155563354492301 M 376.25441741943354,10.705337524414062 M 374.4780807495117,11.627288818359318 M 372.92091369628906,12.88450622558588 M 371.64527893066406,14.426605224609375 M 304.36864852905273,114.71630859374989 M 302.69960021972656,116.80212402343744 M 300.705337524414,118.57955169677712 M 298.4419975280762,119.99858093261724 M 295.97328186035156,121.01924896240229 M 293.36867141723627,121.61284637451178 M 290.70148277282715,121.76266479492188 M 288.04678344726557,121.46446990966791 M 285.4792957305908,120.72667694091797 M 283.07128143310547,119.57003784179676 M 280.89052200317377,118.02710723876953 M 278.99839210510254,116.14131927490223 M 277.44815254211426,113.96575164794922 M 276.28343391418457,111.56163787841803 M 275.0697145462036,109.03230285644526 M 273.46741104125977,106.72942352294928 M 271.517704963684,104.712173461914 M 269.2707042694092,103.03240203857416 M 266.784155368805,101.73328399658214 M 264.12196350097656,100.84819793701166 M 261.3525471687317,100.39989471435541 M 258.5470806360245,100.39989471435541 M 255.77766418457028,100.84819793701166 M 253.11547279357907,101.73328399658203 M 250.62892341613767,103.03240203857416 M 248.3819227218628,104.712173461914 M 246.43221664428708,106.72942352294922 M 244.82991313934326,109.03230285644526 M 243.6161937713623,111.56163787841797 M 242.45147514343262,113.96575164794922 M 240.90123558044425,116.14131927490223 M 239.00910568237305,118.02710723876947 M 236.82834625244138,119.57003784179682 M 234.42033195495603,120.72667694091797 M 231.85284423828125,121.46446990966797 M 229.1981449127197,121.76266479492188 M 226.5309562683106,121.61284637451172 M 223.9263458251953,121.01924896240234 M 221.45763015747067,119.99858093261713 M 219.19428634643552,118.57955169677729 M 217.20002746582028,116.80212402343744 M 215.5309791564941,114.71630859374989 M 148.2543487548828,14.426605224609432 M 146.97871398925778,12.88450622558588 M 145.42154693603513,11.627288818359318 M 143.64521026611328,10.705337524414062 M 141.72086334228513,10.155563354492188 M 139.7255783081055,10.0 M 137.7392807006836,10.244873046874943 M 135.84151458740234,10.88037109375 M 134.1083068847656,11.881027221679574 M 132.60906982421875,13.206802368164006 M 131.4038543701172,14.80455017089838 M 130.54093933105463,16.610305786132812 M 130.0548706054687,18.551712036132812 M 129.96514892578122,20.551040649414006 M 130.2753448486328,22.528198242187386 M 130.97302246093747,24.40399169921875 M 177.93951416015625,120.08261108398432 M 180.0155029296875,124.78817749023432 M 181.70074462890625,129.64739990234375 M 182.98400878906247,134.6278915405273 M 183.8567352294922,139.69647216796875 M 184.313117980957,144.81934356689453 M 184.35011291503906,149.9623641967773 M 183.96746063232422,155.09127044677734 M 183.1677322387695,160.17187499999994 M 181.95623779296872,165.1703147888183 M 180.34106445312497,170.0532760620116 M 178.33297729492185,174.78821945190424 M 175.94535064697263,179.3435821533203 M 173.19409942626953,183.6890106201172 M 170.09756469726562,187.79553604125977 M 166.67638397216797,191.63579940795893 M 162.95335388183594,195.18420028686518 M 158.9532928466797,198.4170913696289 M 154.70285034179688,201.31292533874512 M 150.23036193847653,203.85240554809565 M 145.56563568115234,206.01860237121582 M 140.73976135253906,207.79708290100086 M 135.78488922119138,209.17599296569819 M 130.7340545654297,210.14614295959467 M 125.62092590332028,210.70106697082514 M 19.277557373046882,217.8662033081054 M 17.304244995117173,218.19988346099854 M 15.436874389648452,218.91982746124262 M 13.750274658203098,219.99720001220697 M 12.311981201171886,221.38884782791138 M 11.17962646484376,223.03903150558466 M 10.39852905273435,224.88165402412412 M 10.000000000000004,226.84291267395017 M 10.0,228.84425163269037 M 10.39852905273435,230.80551028251642 M 11.179626464843754,232.64813280105588 M 12.311981201171886,234.2983164787292 M 13.7502746582031,235.68996429443357 M 15.43687438964845,236.7673368453979 M 17.304244995117177,237.48728084564203 M 378.5355987548828,437.10389709472634 M 378.21776580810547,436.6896820068357 M 378.01795959472656,436.2073211669921 M 377.9498138427734,435.6896820068358 M 378.01795959472656,435.1720428466796 M 378.21776580810547,434.6896820068359 M 378.5355987548828,434.27546691894514 M 378.94981384277344,433.95762634277355 M 379.4321746826172,433.75782775878895 M 379.9498138427734,433.6896820068358 M 380.46745300292974,433.75782775878906 M 380.94981384277344,433.9576263427733 M 381.36402893066406,434.2754669189453 M 381.6818618774414,434.68968200683594 M 381.88166809082026,435.1720428466796 M 381.94981384277344,435.6896820068357 M 381.88166809082026,436.2073211669921 M 381.68186187744135,436.6896820068358 M 381.36402893066406,437.10389709472645 M 380.94981384277344,437.4217224121093 M 380.4674530029297,437.62153625488276 M 379.9498138427734,437.68968200683594 M 379.4321746826172,437.62153625488276 M 378.9498138427734,437.4217224121095 M 310.54406356811523,298.12013244628884 M 312.8170852661132,298.72918701171875 M 314.94981384277344,299.72369384765614 M 316.87744522094727,301.07343292236317 M 318.54141235351557,302.7374038696292 M 319.8911552429199,304.66503143310547 M 320.8856658935547,306.7977600097657 M 321.49471664428705,309.0707855224611 M 321.69981384277344,311.4150314331056 M 321.49471664428705,313.7592849731444 M 320.8856658935547,316.0323028564453 M 319.8911552429199,318.16503143310547 M 318.5414123535156,320.09266662597656 M 316.87744522094727,321.75662994384743 M 314.94981384277344,323.1063766479491 M 312.8170852661132,324.1008834838865 M 310.54406356811523,324.70993804931635 M 308.1998138427734,324.9150314331056 M 305.85556411743164,324.7099380493163 M 303.58254241943365,324.1008834838865 M 301.44981384277344,323.1063766479492 M 299.5221824645996,321.75662994384766 M 297.8582153320313,320.09266662597656 M 296.50847244262695,318.16503143310547 M 295.51396179199213,316.03230285644526 M 294.90491104125977,313.7592849731444 M 294.69981384277344,311.4150314331055 M 294.9049110412598,309.0707855224607 M 295.51396179199213,306.7977600097656 M 296.50847244262695,304.66503143310536 M 297.85821533203125,302.73740386962885 M 299.52218246459955,301.0734329223634 M 301.44981384277344,299.72369384765614 M 303.5825424194336,298.72918701171864 M 305.85556411743164,298.120132446289 M 308.19981384277344,297.9150314331053 M 500.94981384277344,226.11153137684096 M 501.36402893066406,226.42936861515048 M 501.6818695068358,226.84358215332193 M 501.8816680908202,227.32594406604755 M 501.9498138427734,227.84358215332225 M 501.8816680908202,228.36122024059185 M 501.6818695068358,228.84358215331923 M 501.36402893066406,229.25779569148733 M 500.94981384277344,229.57563292980112 M 500.4674530029296,229.77543377876088 M 499.9498138427733,229.84358215332193 M 499.4321746826172,229.77543377876395 M 498.9498138427733,229.57563292980407 M 498.5355987548827,229.25779569149367 M 498.21775817871094,228.84358215332216 M 498.01795959472656,228.3612202405926 M 497.9498138427734,227.84358215332068 M 498.01795959472656,227.32594406604855 M 498.21775817871094,226.84358215332017 M 498.53559875488287,226.42936861515093 M 498.9498138427733,226.11153137683627 M 499.4321746826172,225.91173052787852 M 499.9498138427733,225.84358215332068 M 500.4674530029296,225.9117305278778 M 342.9498138427734,227.84358215331952 M 343.1549072265625,225.49933171272244 M 343.76396179199213,223.22631025314266 M 344.7584686279297,221.09358215332043 M 346.10821533203125,219.16594982147268 M 347.77217864990234,217.50198173522972 M 349.6998138427734,216.1522388458248 M 351.8325424194336,215.1577320098878 M 354.1055603027344,214.54867744445778 M 356.4498138427734,214.34358215332026 M 358.7940673828125,214.5486774444579 M 361.06708526611334,215.15773200988798 M 363.19981384277344,216.1522388458261 M 365.12744903564453,217.5019817352296 M 366.7914123535156,219.1659498214721 M 368.1411590576171,221.09358215331923 M 369.1356658935547,223.22631025314396 M 369.7447204589844,225.49933171272204 M 369.9498138427734,227.84358215332023 M 369.74472045898443,230.18783259391918 M 369.1356658935547,232.46085405349896 M 368.1411590576172,234.59358215332514 M 366.7914123535156,236.52121448516675 M 365.12744903564453,238.18518257141363 M 363.1998138427734,239.53492546082506 M 361.0670852661133,240.52943229674725 M 358.7940673828125,241.13848686218694 M 356.4498138427734,241.34358215331994 M 354.10556030273443,241.1384868621813 M 351.83254241943354,240.5294322967582 M 349.6998138427734,239.53492546081574 M 347.77217864990234,238.1851825714127 M 346.1082153320312,236.5212144851625 M 344.75846862792963,234.59358215331818 M 343.76396179199213,232.46085405349763 M 343.1549072265625,230.18783259391788 M 294.90491104125977,141.92787933349615 M 295.51396179199213,139.65486145019526 M 296.50847244262695,137.52213287353527 M 297.8582153320312,135.5944976806639 M 299.5221824645996,133.93053436279303 M 301.44981384277344,132.5807876586914 M 303.5825424194336,131.5862808227539 M 305.85556411743164,130.97722625732428 M 308.19981384277344,130.7721328735351 M 310.54406356811523,130.97722625732422 M 312.8170852661132,131.5862808227538 M 314.94981384277344,132.58078765869152 M 316.87744522094727,133.93053436279286 M 318.5414123535157,135.59449768066418 M 319.8911552429199,137.5221328735351 M 320.8856658935547,139.65486145019537 M 321.49471664428705,141.92787933349598 M 321.69981384277344,144.27213287353516 M 321.49471664428705,146.61637878417957 M 320.8856658935547,148.8894042968749 M 319.8911552429199,151.0221328735351 M 318.5414123535156,152.9497604370116 M 316.8774452209472,154.61373138427717 M 314.9498138427734,155.96347045898432 M 312.8170852661132,156.95797729492182 M 310.54406356811523,157.5670318603514 M 308.19981384277344,157.7721328735352 M 305.85556411743164,157.56703186035145 M 303.58254241943365,156.95797729492193 M 301.44981384277344,155.96347045898432 M 299.5221824645996,154.6137313842774 M 297.8582153320312,152.9497604370115 M 296.5084724426269,151.02213287353504 M 295.51396179199213,148.88940429687494 M 294.90491104125977,146.6163787841797 M 294.6998138427734,144.27213287353504 M 261.39870262145996,129.95535278320318 M 261.44981384277344,130.3435821533203 M 261.39870262145996,130.73181152343756 M 261.24885189533234,131.09358215332026 M 261.0104739665985,131.40424346923817 M 260.69981384277344,131.6426239013672 M 260.3380424082279,131.79247283935536 M 259.94981384277344,131.8435821533202 M 259.56158527731895,131.79247283935547 M 259.19981384277344,131.6426239013672 M 258.88915371894836,131.40424346923828 M 258.65077579021454,131.0935821533203 M 258.5009250640869,130.73181152343744 M 258.44981384277344,130.3435821533203 M 258.5009250640869,129.95535278320307 M 258.65077579021454,129.5935821533202 M 258.88915371894836,129.2829208374024 M 259.19981384277344,129.04454040527338 M 259.56158527731895,128.8946914672851 M 259.9498138427734,128.8435821533202 M 260.3380424082279,128.8946914672851 M 260.69981384277344,129.0445404052735 M 261.0104739665985,129.28292083740223 M 261.24885189533234,129.5935821533203 M 172.12744903564453,238.18518257141434 M 170.19981384277344,239.5349254608153 M 168.06708526611328,240.52943229675313 M 165.7940673828125,241.13848686218165 M 163.44981384277344,241.34358215332 M 161.10556030273438,241.1384868621815 M 158.8325424194336,240.52943229675296 M 156.6998138427734,239.53492546081554 M 154.77217864990234,238.18518257141164 M 153.10821533203122,236.5212144851677 M 151.7584686279297,234.5935821533207 M 150.7639617919922,232.46085405349743 M 150.15490722656247,230.18783259391756 M 149.9498138427734,227.84358215332023 M 150.15490722656247,225.49933171272258 M 150.7639617919922,223.22631025314314 M 151.7584686279297,221.0935821533203 M 153.10821533203122,219.1659498214721 M 154.77217864990234,217.50198173522944 M 156.6998138427734,216.15223884582514 M 158.8325424194336,215.1577320098877 M 161.10556030273435,214.54867744445806 M 163.4498138427734,214.3435821533202 M 165.7940673828125,214.54867744445818 M 168.06708526611325,215.15773200988752 M 170.19981384277344,216.15223884582514 M 172.12744903564453,217.5019817352295 M 173.79141235351562,219.16594982147228 M 175.1411590576172,221.09358215332037 M 176.1356658935547,223.22631025314342 M 176.74472045898435,225.49933171272278 M 176.94981384277344,227.84358215332037 M 176.74472045898435,230.18783259391813 M 176.1356658935547,232.46085405349757 M 175.1411590576172,234.5935821533204 M 173.7914123535156,236.5212144851685 M 214.04406356811523,298.12013244628906 M 216.31708526611328,298.72918701171864 M 218.44981384277344,299.72369384765614 M 220.37744522094727,301.07343292236317 M 222.0414123535156,302.7374038696289 M 223.39115524291992,304.66503143310536 M 224.3856658935547,306.79776000976574 M 224.9947166442871,309.0707855224608 M 225.19981384277344,311.4150314331054 M 224.9947166442871,313.7592849731444 M 224.3856658935547,316.03230285644526 M 223.39115524291992,318.16503143310536 M 222.0414123535156,320.09266662597656 M 220.3774452209472,321.7566299438476 M 218.44981384277344,323.1063766479491 M 216.31708526611328,324.1008834838867 M 214.04406356811523,324.70993804931635 M 211.69981384277344,324.9150314331054 M 209.35556411743164,324.70993804931624 M 207.0825424194336,324.1008834838867 M 204.94981384277344,323.1063766479491 M 203.0221824645996,321.7566299438476 M 201.35821533203122,320.09266662597656 M 200.00847244262695,318.16503143310536 M 199.0139617919922,316.03230285644526 M 198.40491104125977,313.7592849731445 M 198.19981384277347,311.41503143310536 M 198.40491104125974,309.07078552246094 M 199.0139617919922,306.7977600097656 M 200.00847244262692,304.6650314331054 M 201.35821533203128,302.7374038696288 M 203.0221824645996,301.0734329223633 M 204.9498138427734,299.72369384765625 M 207.08254241943362,298.72918701171864 M 209.35556411743167,298.12013244628895 M 211.69981384277344,297.9150314331054 M 223.39115524291992,137.5221328735351 M 224.3856658935547,139.65486145019526 M 224.9947166442871,141.92787933349604 M 225.19981384277344,144.2721328735351 M 224.9947166442871,146.6163787841797 M 224.3856658935547,148.889404296875 M 223.39115524291992,151.0221328735351 M 222.0414123535156,152.94976043701166 M 220.37744522094727,154.6137313842773 M 218.44981384277344,155.96347045898432 M 216.31708526611328,156.95797729492182 M 214.04406356811518,157.5670318603515 M 211.69981384277344,157.7721328735352 M 209.35556411743164,157.5670318603515 M 207.0825424194336,156.95797729492182 M 204.94981384277344,155.96347045898438 M 203.0221824645996,154.61373138427723 M 201.35821533203125,152.94976043701172 M 200.00847244262692,151.0221328735351 M 199.0139617919922,148.88940429687494 M 198.4049110412598,146.61637878417974 M 198.1998138427734,144.2721328735351 M 198.4049110412598,141.9278793334961 M 199.0139617919922,139.65486145019526 M 200.00847244262695,137.52213287353516 M 201.35821533203125,135.59449768066406 M 203.02218246459964,133.9305343627929 M 204.94981384277344,132.5807876586914 M 207.08254241943357,131.5862808227538 M 209.35556411743164,130.97722625732416 M 211.69981384277344,130.7721328735351 M 214.04406356811518,130.97722625732416 M 216.31708526611328,131.5862808227538 M 218.44981384277344,132.5807876586914 M 220.37744522094727,133.9305343627929 M 222.0414123535156,135.59449768066406 M 138.21776580810544,18.99748229980463 M 138.5355987548828,18.583267211914062 M 138.94981384277347,18.26544189453125 M 139.43217468261716,18.065628051757756 M 139.9498138427734,17.997482299804688 M 140.46745300292966,18.0656280517577 M 140.94981384277344,18.26544189453125 M 141.364028930664,18.583267211914006 M 141.68186187744143,18.99748229980463 M 141.8816680908203,19.479843139648494 M 141.94981384277344,19.997482299804688 M 141.88166809082034,20.515121459960994 M 141.68186187744138,20.99748229980463 M 141.3640289306641,21.411697387695256 M 140.9498138427734,21.72953796386713 M 140.46745300292963,21.92933654785145 M 139.94981384277344,21.997482299804688 M 139.43217468261722,21.92933654785145 M 138.94981384277344,21.72953796386713 M 138.5355987548828,21.411697387695256 M 138.21776580810544,20.997482299804744 M 138.01795959472653,20.51512145996088 M 137.94981384277344,19.997482299804688 M 138.01795959472653,19.479843139648494 M 247.83804225921628,116.39469146728516 M 248.19981384277347,116.54454040527344 M 248.51047420501706,116.78292083740223 M 248.74885177612302,117.09358215332026 M 248.89870262146002,117.45535278320312 M 248.94981384277344,117.84358215332026 M 248.89870262145996,118.23181152343744 M 248.74885177612302,118.59358215332037 M 248.51047420501706,118.90424346923822 M 248.19981384277344,119.14262390136707 M 247.83804225921628,119.29247283935541 M 247.44981384277344,119.34358215332037 M 247.06158542633057,119.29247283935541 M 246.6998138427734,119.14262390136713 M 246.38915348052979,118.90424346923817 M 246.15077590942383,118.59358215332026 M 246.00092506408689,118.23181152343744 M 245.9498138427734,117.84358215332026 M 246.00092506408689,117.45535278320307 M 246.15077590942383,117.09358215332026 M 246.38915348052979,116.78292083740223 M 246.6998138427734,116.54454040527344 M 247.06158542633057,116.39469146728516 M 247.44981384277344,116.34358215332031 M 261.44981384277344,105.34358215332026 M 261.39870262145996,105.73181152343744 M 261.24885189533234,106.09358215332031 M 261.0104739665985,106.40424346923817 M 260.69981384277344,106.64262390136713 M 260.3380424082279,106.79247283935536 M 259.94981384277344,106.8435821533202 M 259.56158527731895,106.79247283935536 M 259.19981384277344,106.64262390136707 M 258.88915371894836,106.40424346923822 M 258.65077579021454,106.09358215332031 M 258.5009250640869,105.73181152343744 M 258.44981384277344,105.3435821533202 M 258.5009250640869,104.95535278320312 M 258.65077579021454,104.59358215332031 M 258.88915371894836,104.2829208374024 M 259.19981384277344,104.04454040527338 M 259.56158527731895,103.8946914672851 M 259.94981384277344,103.84358215332026 M 260.3380424082279,103.8946914672851 M 260.69981384277344,104.04454040527344 M 261.0104739665985,104.28292083740229 M 261.24885189533234,104.59358215332031 M 261.39870262145996,104.95535278320307 M 264.3582034111023,111.77595520019526 M 265.65285873413086,112.97272491455072 M 266.6323628425598,114.43865203857428 M 267.2425880432129,116.09274291992182 M 267.4498138427734,117.84358215332026 M 267.19425773620605,119.7847213745116 M 266.4450044631958,121.59358215332031 M 265.2531147003174,123.14688110351562 M 263.69981384277344,124.33877563476557 M 261.89095664024353,125.08802795410156 M 259.9498138427734,125.34358215332026 M 258.1989736557007,125.13636016845703 M 256.5448851585388,124.52613067626942 M 255.07895326614377,123.54662322998041 M 253.88218641281125,122.25196838378906 M 253.02071714401245,120.71370697021479 M 252.5421514511108,119.01683807373041 M 252.47293376922602,117.25514221191395 M 252.81688976287842,115.52595520019531 M 253.5550127029419,113.92484283447266 M 254.6465129852295,112.540283203125 M 256.0310745239258,111.44878387451166 M 257.6321864128113,110.71065521240229 M 259.3613706231117,110.36669921874989 M 261.12307238578796,110.43592071533203 M 262.8199396133423,110.91448211669922 M 272.0615854263305,116.39469146728504 M 272.44981384277344,116.34358215332026 M 272.8380422592163,116.3946914672851 M 273.19981384277344,116.54454040527344 M 273.51047420501703,116.78292083740234 M 273.74885177612305,117.09358215332026 M 273.89870262145996,117.45535278320307 M 273.94981384277344,117.84358215332026 M 273.89870262145996,118.2318115234375 M 273.74885177612305,118.59358215332026 M 273.51047420501703,118.90424346923822 M 273.19981384277344,119.14262390136724 M 272.8380422592163,119.29247283935541 M 272.4498138427734,119.34358215332026 M 272.06158542633057,119.29247283935541 M 271.6998138427734,119.14262390136707 M 271.3891534805298,118.90424346923822 M 271.1507759094238,118.59358215332026 M 271.00092506408686,118.23181152343739 M 270.9498138427734,117.84358215332031 M 271.0009250640869,117.45535278320318 M 271.1507759094238,117.09358215332031 M 271.3891534805298,116.78292083740229 M 271.6998138427734,116.54454040527327 M 380.9498138427735,18.26544189453125 M 381.36402893066406,18.583267211913892 M 381.6818618774414,18.997482299804744 M 381.88166809082026,19.47984313964838 M 381.94981384277344,19.997482299804744 M 381.88166809082026,20.515121459960994 M 381.6818618774414,20.997482299804744 M 381.36402893066406,21.4116973876952 M 380.94981384277344,21.72953796386713 M 380.4674530029297,21.929336547851676 M 379.9498138427734,21.997482299804688 M 379.4321746826172,21.92933654785145 M 378.94981384277344,21.729537963867188 M 378.5355987548828,21.41169738769537 M 378.21776580810547,20.997482299804517 M 378.01795959472656,20.51512145996088 M 377.9498138427734,19.997482299804574 M 378.01795959472656,19.47984313964838 M 378.21776580810547,18.99748229980463 M 378.5355987548828,18.583267211914062 M 378.94981384277344,18.26544189453125 M 379.4321746826172,18.06562805175787 M 379.9498138427734,17.997482299804688 M 380.4674530029297,18.06562805175787 M 309.66566467285156,266.53898239135714 M 306.30041885375977,270.5123214721681 M 302.6185531616211,274.19418716430664 M 298.64521408081055,277.5594329833982 M 294.4075469970703,280.58507156372025 M 289.9344997406006,283.25042724609364 M 285.2566261291504,285.5373001098634 M 280.40587997436523,287.43006896972656 M 275.4153995513916,288.91579818725586 M 270.3192729949951,289.9843444824219 M 265.1523127555847,290.62840652465826 M 259.94981384277344,290.8435821533201 M 254.92328929901123,290.64273834228516 M 249.92881393432617,290.0414886474608 M 244.99823188781735,289.0436668395995 M 240.16298103332517,287.6556320190429 M 235.45388984680173,285.8862380981446 M 230.9009857177734,283.7467613220215 M 226.5332984924316,281.2508506774901 M 222.37866973876953,278.41441345214844 M 218.46359634399414,275.2555389404297 M 214.81303787231442,271.7943687438964 M 211.45027160644528,268.0529670715332 M 208.3967399597168,264.0551872253419 M 205.67190551757812,259.8265266418457 M 203.29314804077146,255.393943786621 M 201.27563476562497,250.78569793701175 M 199.63222503662107,246.03117561340372 M 198.37340164184567,241.1606874465935 M 197.5071868896484,236.20529079437068 M 197.0391044616699,231.19657921791068 M 196.97214126586914,226.16648924350744 M 197.30672073364258,221.14709234237694 M 198.04071426391602,216.17039299011242 M 199.1694374084473,211.26811981201183 M 200.68569564819336,206.47153282165522 M 202.57982254028317,201.81121444702137 M 204.83974075317386,197.3168773651123 M 207.4510383605957,193.017177581787 M 210.39706420898438,188.93953323364258 M 213.65904235839844,185.109935760498 M 217.21616744995117,181.55281066894526 M 221.04576492309576,178.2908325195313 M 225.1234092712402,175.34480667114252 M 229.4231090545654,172.7335090637206 M 233.91744613647458,170.47359085083013 M 238.5777645111084,168.57946395874006 M 243.37435150146482,167.06320571899414 M 248.27662467956543,165.9344825744629 M 253.2533240318298,165.2004890441894 M 258.2727209329605,164.86590957641596 M 263.3028109073639,164.93287277221668 M 268.3115224838257,165.4009552001952 M 273.2669191360473,166.26716995239263 M 278.1374073028564,167.5259933471679 M 282.89192962646484,169.16940307617176 M 287.5001754760742,171.18691635131813 M 291.9327583312988,173.565673828125 M 296.1614189147949,176.29050827026356 M 300.15919876098627,179.34403991699224 M 303.90060043334955,182.70680618286138 M 307.3617706298828,186.3573646545414 M 310.52064514160156,190.27243804931607 M 313.35708236694336,194.42706680297823 M 315.8529930114746,198.7947540283207 M 317.99246978759766,203.34765815734846 M 319.76186370849604,208.05674934387218 M 321.14989852905273,212.89200019836414 M 322.147720336914,217.82258224487236 M 322.7489700317383,222.81705760955808 M 322.94981384277344,227.84358215331991 M 322.7346382141113,233.0460810661314 M 322.09057617187494,238.21304130554395 M 321.022029876709,243.3091678619367 M 319.53630065917963,248.29964828491134 M 317.6435317993164,253.15039443969826 M 315.3566589355468,257.82826805114775 M 312.6913032531738,262.3013153076168 M 141.6818618774414,436.6896820068358 M 141.36402893066406,437.1038970947265 M 140.9498138427734,437.4217224121094 M 140.46745300292966,437.62153625488276 M 139.94981384277344,437.68968200683594 M 139.4321746826172,437.62153625488276 M 138.94981384277344,437.4217224121094 M 138.5355987548828,437.10389709472645 M 138.21776580810544,436.6896820068359 M 138.01795959472656,436.20732116699213 M 137.94981384277338,435.6896820068358 M 138.01795959472653,435.17204284667963 M 138.21776580810544,434.6896820068358 M 138.5355987548828,434.2754669189452 M 138.9498138427734,433.9576263427734 M 139.4321746826172,433.75782775878906 M 139.94981384277344,433.6896820068359 M 140.4674530029297,433.75782775878906 M 140.9498138427734,433.9576263427734 M 141.36402893066406,434.27546691894526 M 141.6818618774414,434.6896820068359 M 141.8816680908203,435.17204284667963 M 141.94981384277344,435.6896820068358 M 141.8816680908203,436.2073211669922 M 21.881668090820295,227.3259440660476 M 21.949813842773445,227.84358215332028 M 21.8816680908203,228.36122024059293 M 21.681869506835938,228.84358215332026 M 21.36402893066404,229.25779569149012 M 20.949813842773445,229.5756329298019 M 20.4674530029297,229.7754337787628 M 19.949813842773448,229.84358215332026 M 19.432174682617195,229.7754337787628 M 18.94981384277345,229.5756329298019 M 18.535598754882812,229.25779569149012 M 18.217758178710913,228.84358215332026 M 18.017959594726555,228.36122024059293 M 17.94981384277345,227.84358215332028 M 18.017959594726555,227.3259440660476 M 18.217758178710916,226.84358215332028 M 18.535598754882812,226.42936861515042 M 18.94981384277345,226.11153137683863 M 19.432174682617195,225.91173052787775 M 19.949813842773448,225.84358215332028 M 20.4674530029297,225.91173052787775 M 20.949813842773445,226.11153137683863 M 21.36402893066404,226.42936861515042 M 21.681869506835938,226.84358215332028 "
  />
</svg>
