<?xml version="1.0" encoding="UTF-8" standalone="no"?>
<!-- Created with Inkscape (http://www.inkscape.org/) -->

<svg
   xmlns:dc="http://purl.org/dc/elements/1.1/"
   xmlns:cc="http://creativecommons.org/ns#"
   xmlns:rdf="http://www.w3.org/1999/02/22-rdf-syntax-ns#"
   xmlns:svg="http://www.w3.org/2000/svg"
   xmlns="http://www.w3.org/2000/svg"
   xmlns:sodipodi="http://sodipodi.sourceforge.net/DTD/sodipodi-0.dtd"
   xmlns:inkscape="http://www.inkscape.org/namespaces/inkscape"
   width="217.86201mm"
   height="195.55254mm"
   viewBox="0 0 771.95202 692.90268"
   id="svg6117"
   version="1.1"
   inkscape:version="0.91 r13725"
   sodipodi:docname="Helical-434-Triangle.svg">
  <defs
     id="defs6119" />
  <sodipodi:namedview
     id="base"
     pagecolor="#ffffff"
     bordercolor="#666666"
     borderopacity="1.0"
     inkscape:pageopacity="0.0"
     inkscape:pageshadow="2"
     inkscape:zoom="0.35"
     inkscape:cx="258.69247"
     inkscape:cy="36.898781"
     inkscape:document-units="px"
     inkscape:current-layer="layer1"
     showgrid="false"
     fit-margin-left="5"
     fit-margin-top="5"
     fit-margin-right="5"
     fit-margin-bottom="5"
     inkscape:window-width="1130"
     inkscape:window-height="807"
     inkscape:window-x="871"
     inkscape:window-y="361"
     inkscape:window-maximized="0" />
  <metadata
     id="metadata6122">
    <rdf:RDF>
      <cc:Work
         rdf:about="">
        <dc:format>image/svg+xml</dc:format>
        <dc:type
           rdf:resource="http://purl.org/dc/dcmitype/StillImage" />
        <dc:title></dc:title>
      </cc:Work>
    </rdf:RDF>
  </metadata>
  <g
     inkscape:label="Layer 1"
     inkscape:groupmode="layer"
     id="layer1"
     transform="translate(13.11888,8.3748617)">
    <g
       id="g6677"
       transform="matrix(3.5433071,0,0,3.5433073,-29.063762,-24.319746)">
      <path
         d="m 194.62882,10.118736 -2.84919,0.536316 -2.74171,0.942612 -2.57663,1.329109 -6.66141,3.825924 -6.86123,3.454781 -7.0404,3.073238 -7.19836,2.682445 -7.33466,2.283577 -7.44888,1.877827 -7.54066,1.466431 -7.60975,1.050613 -7.65591,0.631638 -7.67904,0.210758 -7.67903,-0.210758 -7.655918,-0.631638 -7.609744,-1.050613 -7.540663,-1.466431 -7.448877,-1.877827 -7.334664,-2.283577 -7.198364,-2.682445 -7.040398,-3.073238 -6.861229,-3.454781 -6.661407,-3.825924 -2.57663,-1.329109 -2.741714,-0.942612 -2.84919,-0.536316 -2.89684,0 -2.883487,0.182587 -2.809662,0.715065 -2.676765,1.113769 -2.487602,1.489075 -2.246186,1.833084 -1.95755,2.138581 -1.627785,2.399131 L 11.383469,22.5993 10.510178,25.363876 10.045769,28.22567 10,31.124538 l 0.373825,2.875027 0.785568,2.790772 1.180809,2.647873 1.551232,2.449325 1.889061,2.199318 2.187187,1.903088 2.439354,1.566869 6.644043,3.855988 6.422546,4.214611 6.181702,4.560543 5.922249,4.892745 5.644966,5.210218 5.350685,5.512001 5.040298,5.79719 4.71473,6.064924 4.374973,6.314399 4.022038,6.544861 3.656997,6.75562 3.280943,6.94603 2.895012,7.11554 2.500366,7.26362 2.098191,7.38983 1.689697,7.49379 1.276117,7.5752 0.858696,7.63378 0.438688,7.66939 0.01736,7.68191 0.13727,2.89598 0.554531,2.8457 0.960137,2.73563 1.345564,2.56807 1.70272,2.34655 2.024095,2.0757 2.30293,1.76126 2.53338,1.40979 2.71059,1.02871 2.83084,0.626 2.8916,0.21014 2.89161,-0.21014 2.83084,-0.626 2.71059,-1.02871 2.53337,-1.40979 2.30294,-1.76126 2.02409,-2.0757 1.70272,-2.34655 1.34557,-2.56807 0.96013,-2.73563 0.55453,-2.8457 0.13727,-2.89598 0.0174,-7.68191 0.43869,-7.66939 0.8587,-7.63378 1.27611,-7.5752 1.6897,-7.49379 2.09819,-7.38983 2.50037,-7.26362 2.89501,-7.11554 3.28094,-6.94603 3.657,-6.75562 4.02204,-6.544861 4.37497,-6.314399 4.71473,-6.064924 5.0403,-5.79719 5.35068,-5.512001 5.64497,-5.210218 5.92225,-4.892745 6.1817,-4.560545 6.42255,-4.214609 6.64404,-3.855988 2.43935,-1.566869 2.18719,-1.903088 1.88906,-2.199318 1.55123,-2.449325 1.18081,-2.647873 0.78557,-2.790772 0.37382,-2.875027 -0.0458,-2.898868 -0.46441,-2.861794 -0.87329,-2.764576 -1.26382,-2.609272 -1.62779,-2.399131 -1.95755,-2.138581 -2.24618,-1.833084 -2.4876,-1.489075 -2.67677,-1.113769 -2.80966,-0.715065 L 197.52562,10 l -2.8968,0.118736 m -68.13336,131.458804 -1.57906,9.61673 -0.38081,1.36364 -0.74778,1.20223 -1.0548,0.94442 -1.27725,0.61088 -1.39728,0.22838 -1.40527,-0.17247 -3.46334,-0.61633 -3.51776,0 -3.46334,0.61633 -1.40527,0.17247 -1.39728,-0.22838 -1.27724,-0.61088 -1.0548,-0.94442 -0.74779,-1.20223 -0.3808,-1.36364 -1.57907,-9.61673 -2.200194,-9.4939 -2.812049,-9.33098 -0.255671,-1.34469 0.118557,-1.36363 0.483902,-1.28038 0.812983,-1.10119 1.081136,-0.83945 1.268269,-0.51483 1.360357,-0.1516 1.35049,0.22298 3.88537,0.99534 3.96552,0.60123 4.0058,0.20109 4.0058,-0.20109 3.96552,-0.60123 3.88538,-0.99534 1.35049,-0.22298 1.36035,0.1516 1.26827,0.51483 1.08114,0.83945 0.81298,1.10119 0.4839,1.28038 0.11856,1.36363 -0.25567,1.34469 -2.81205,9.33098 -2.2002,9.4939 m -4.38684,22.75839 1.66397,1.66396 1.34975,1.92764 0.9945,2.13273 0.60906,2.27301 0.20509,2.34426 -0.20509,2.34425 -0.60906,2.27302 -0.9945,2.13273 -1.34975,1.92763 -1.66397,1.66397 -1.92763,1.34974 -2.13273,0.99451 -2.27302,0.60905 -2.34425,0.2051 -2.34425,-0.2051 -2.27302,-0.60905 -2.13273,-0.99451 -1.92763,-1.34974 -1.66397,-1.66397 -1.34974,-1.92763 -0.99451,-2.13273 -0.60905,-2.27302 -0.205098,-2.34425 0.205098,-2.34426 0.60905,-2.27301 0.99451,-2.13273 1.34974,-1.92764 1.66397,-1.66396 1.92763,-1.34975 2.13273,-0.9945 2.27302,-0.60906 2.34425,-0.20509 2.34425,0.20509 2.27302,0.60906 2.13273,0.9945 1.92763,1.34975 M 43.463402,50.604216 42.796127,49.355499 42.50563,47.969801 l 0.109581,-1.411573 0.50087,-1.324265 0.85199,-1.130775 2.265434,-2.691174 1.758873,-3.046463 1.197907,-3.307503 0.553283,-1.303238 0.896416,-1.095894 1.167668,-0.800689 1.345298,-0.441273 1.415058,-0.04648 1.371354,0.352039 9.117858,3.440853 9.322049,2.841519 9.486887,2.230186 1.292368,0.450924 1.121658,0.784489 0.866894,1.059265 0.547161,1.254654 0.186424,1.356022 -0.188286,1.355762 -0.548885,1.253903 -0.868347,1.058071 -2.804678,2.867164 -2.503447,3.133626 -2.177044,3.368579 -1.82875,3.569664 -1.462078,3.734862 -1.080697,3.862503 -0.482143,1.281048 -0.81147,1.102298 -1.079983,0.840942 -1.267559,0.516563 -1.360145,0.153473 -1.350796,-0.221121 -1.240215,-0.579141 -1.036698,-0.893761 -6.674843,-7.100793 -7.121849,-6.65237 -7.538791,-6.175869 -0.990555,-1.01161 M 34.476814,42.61338 32.203789,43.222431 29.859543,43.427528 27.515289,43.222431 25.242271,42.61338 23.109543,41.61887 21.181908,40.269127 19.517944,38.60516 18.168198,36.677528 17.173691,34.5448 l -0.609055,-2.273022 -0.205093,-2.34425 0.205093,-2.344249 0.609055,-2.273022 0.994507,-2.132729 1.349746,-1.927631 1.663964,-1.663967 1.927635,-1.349743 2.132728,-0.994511 2.273018,-0.60905 2.344254,-0.205098 2.344246,0.205098 2.273025,0.60905 2.132729,0.994511 1.927627,1.349743 1.663971,1.663967 1.349739,1.927631 0.994507,2.132729 0.609055,2.273022 0.205101,2.344249 -0.205101,2.34425 -0.609055,2.273022 -0.994507,2.132728 -1.349739,1.927632 -1.663971,1.663967 -1.927627,1.349743 -2.132729,0.99451 m 56.723091,57.169213 -2.317882,-2.67498 -1.997851,-2.921763 -1.651771,-3.130456 -1.284161,-3.298339 -0.899807,-3.423222 -0.503725,-3.503479 -0.101074,-3.538063 0.302893,-3.526522 0.702913,-3.469009 1.093767,-3.36627 1.470364,-3.219649 1.827793,-3.031052 2.161392,-2.802943 2.466814,-2.538294 2.74008,-2.240551 2.977621,-1.9136 3.176349,-1.561705 3.33366,-1.189449 3.44752,-0.801688 3.51644,-0.403473 3.53951,0 3.51643,0.403473 3.44752,0.801688 3.33367,1.189449 3.17634,1.561705 2.97762,1.9136 2.74008,2.240551 2.46682,2.538294 2.16139,2.802943 1.82779,3.031052 1.47037,3.219649 1.09376,3.36627 0.70292,3.469009 0.30289,3.526522 -0.10107,3.538063 -0.50373,3.503479 -0.89981,3.423222 -1.28416,3.298339 -1.65177,3.130456 -1.99785,2.921763 -2.31788,2.67498 -2.6077,2.393327 -2.86352,2.08047 -3.08201,1.74049 -3.26033,1.37782 -3.39613,0.9972 -3.48766,0.60356 -3.53374,0.20207 -3.53373,-0.20207 -3.48767,-0.60356 -3.39613,-0.9972 -3.260322,-1.37782 -3.082011,-1.74049 -2.863521,-2.08047 -2.607701,-2.393327 m 82.509125,-68.365639 1.3453,0.441273 1.16767,0.800689 0.89642,1.095894 0.55328,1.303238 1.19791,3.307503 1.75887,3.046463 2.26543,2.691174 0.85199,1.130775 0.50087,1.324265 0.10958,1.411573 -0.29049,1.385698 -0.66728,1.248717 -0.99055,1.01161 -7.53879,6.175869 -7.12185,6.65237 -6.67485,7.100793 -1.03669,0.893761 -1.24022,0.579141 -1.35079,0.221121 -1.36015,-0.153473 -1.26756,-0.516563 -1.07998,-0.840942 -0.81147,-1.102298 -0.48215,-1.281047 -1.08069,-3.862504 -1.46208,-3.734862 -1.82875,-3.569664 -2.17704,-3.368579 -2.50345,-3.133626 -2.80468,-2.867164 -0.86835,-1.058071 -0.54888,-1.253903 -0.18829,-1.355762 0.18643,-1.356022 0.54716,-1.254654 0.86689,-1.059265 1.12166,-0.784489 1.29237,-0.450924 9.48689,-2.230186 9.32204,-2.841519 9.11786,-3.440853 1.37136,-0.352039 1.41505,0.04648 m 18.67614,-14.175278 2.27303,-0.60905 2.34424,-0.205098 2.34425,0.205098 2.27302,0.60905 2.13273,0.994511 1.92764,1.349743 1.66396,1.663967 1.34975,1.927631 0.9945,2.132729 0.60906,2.273022 0.20509,2.344249 -0.20509,2.34425 -0.60906,2.273022 -0.9945,2.132728 -1.34975,1.927632 -1.66396,1.663967 -1.92764,1.349743 -2.13273,0.99451 -2.27302,0.609051 -2.34425,0.205097 -2.34424,-0.205097 -2.27303,-0.609051 -2.13273,-0.99451 -1.92763,-1.349743 -1.66397,-1.663967 -1.34974,-1.927632 -0.9945,-2.132728 -0.60906,-2.273022 -0.2051,-2.34425 0.2051,-2.344249 0.60906,-2.273022 0.9945,-2.132729 1.34974,-1.927631 1.66397,-1.663967 1.92763,-1.349743 2.13273,-0.994511"
         style="fill:none;stroke:#0000ff;stroke-width:1;stroke-linecap:round;stroke-linejoin:round;stroke-miterlimit:4;stroke-dasharray:none"
         id="face0-cut"
         inkscape:connector-curvature="0" />
      <path
         d="m 194.62882,10.118736 m -2.84919,0.536316 m -2.74171,0.942612 m -2.57663,1.329109 m -6.66141,3.825924 m -6.86123,3.454781 m -7.0404,3.073238 m -7.19836,2.682445 m -7.33466,2.283577 m -7.44888,1.877827 m -7.54066,1.466431 m -7.60975,1.050613 m -7.65591,0.631638 m -7.67904,0.210758 m -7.67903,-0.210758 M 98.096042,32.641609 M 90.486298,31.590996 M 82.945635,30.124565 M 75.496758,28.246738 M 68.162094,25.963161 M 60.96373,23.280716 m -7.040398,-3.073238 m -6.861229,-3.454781 m -6.661407,-3.825924 m -2.57663,-1.329109 m -2.741714,-0.942612 m -2.84919,-0.536316 m -2.89684,0 m -2.883487,0.182587 m -2.809662,0.715065 m -2.676765,1.113769 m -2.487602,1.489075 m -2.246186,1.833084 m -1.95755,2.138581 m -1.627785,2.399131 M 11.383469,22.5993 m -0.873291,2.764576 M 10.045769,28.22567 M 10,31.124538 m 0.373825,2.875027 m 0.785568,2.790772 m 1.180809,2.647873 m 1.551232,2.449325 m 1.889061,2.199318 m 2.187187,1.903088 m 2.439354,1.566869 m 6.644043,3.855988 m 6.422546,4.214611 m 6.181702,4.560543 m 5.922249,4.892745 m 5.644966,5.210218 m 5.350685,5.512001 m 5.040298,5.79719 m 4.71473,6.064924 m 4.374973,6.314399 m 4.022038,6.544861 m 3.656997,6.75562 m 3.280943,6.94603 m 2.895012,7.11554 m 2.500366,7.26362 m 2.098191,7.38983 m 1.689697,7.49379 m 1.276117,7.5752 m 0.858696,7.63378 m 0.438688,7.66939 m 0.01736,7.68191 m 0.13727,2.89598 m 0.554531,2.8457 m 0.960137,2.73563 m 1.345564,2.56807 m 1.70272,2.34655 m 2.024095,2.0757 m 2.30293,1.76126 m 2.53338,1.40979 m 2.71059,1.02871 m 2.83084,0.626 m 2.8916,0.21014 m 2.89161,-0.21014 m 2.83084,-0.626 m 2.71059,-1.02871 m 2.53337,-1.40979 m 2.30294,-1.76126 m 2.02409,-2.0757 m 1.70272,-2.34655 m 1.34557,-2.56807 m 0.96013,-2.73563 m 0.55453,-2.8457 m 0.13727,-2.89598 m 0.0174,-7.68191 m 0.43869,-7.66939 m 0.8587,-7.63378 m 1.27611,-7.5752 m 1.6897,-7.49379 m 2.09819,-7.38983 m 2.50037,-7.26362 m 2.89501,-7.11554 m 3.28094,-6.94603 m 3.657,-6.75562 m 4.02204,-6.544861 m 4.37497,-6.314399 m 4.71473,-6.064924 m 5.0403,-5.79719 m 5.35068,-5.512001 m 5.64497,-5.210218 m 5.92225,-4.892745 m 6.1817,-4.560545 m 6.42255,-4.214609 m 6.64404,-3.855988 m 2.43935,-1.566869 m 2.18719,-1.903088 m 1.88906,-2.199318 m 1.55123,-2.449325 m 1.18081,-2.647873 m 0.78557,-2.790772 m 0.37382,-2.875027 m -0.0458,-2.898868 m -0.46441,-2.861794 M 215.47852,22.5993 m -1.26382,-2.609272 m -1.62779,-2.399131 m -1.95755,-2.138581 m -2.24618,-1.833084 m -2.4876,-1.489075 m -2.67677,-1.113769 m -2.80966,-0.715065 M 197.52562,10 m -71.03016,131.57754 m -1.57906,9.61673 m -0.38081,1.36364 m -0.74778,1.20223 m -1.0548,0.94442 m -1.27725,0.61088 m -1.39728,0.22838 m -1.40527,-0.17247 m -3.46334,-0.61633 m -3.51776,0 m -3.46334,0.61633 m -1.40527,0.17247 m -1.39728,-0.22838 m -1.27724,-0.61088 m -1.0548,-0.94442 m -0.74779,-1.20223 m -0.3808,-1.36364 m -1.57907,-9.61673 m -2.200194,-9.4939 m -2.812049,-9.33098 m -0.255671,-1.34469 m 0.118557,-1.36363 m 0.483902,-1.28038 m 0.812983,-1.10119 m 1.081136,-0.83945 m 1.268269,-0.51483 m 1.360357,-0.1516 m 1.35049,0.22298 m 3.88537,0.99534 m 3.96552,0.60123 m 4.0058,0.20109 m 4.0058,-0.20109 m 3.96552,-0.60123 m 3.88538,-0.99534 m 1.35049,-0.22298 m 1.36035,0.1516 m 1.26827,0.51483 m 1.08114,0.83945 m 0.81298,1.10119 m 0.4839,1.28038 m 0.11856,1.36363 m -0.25567,1.34469 m -2.81205,9.33098 m -6.58704,32.25229 m 1.66397,1.66396 m 1.34975,1.92764 m 0.9945,2.13273 m 0.60906,2.27301 m 0.20509,2.34426 m -0.20509,2.34425 m -0.60906,2.27302 m -0.9945,2.13273 m -1.34975,1.92763 m -1.66397,1.66397 m -1.92763,1.34974 m -2.13273,0.99451 m -2.27302,0.60905 m -2.34425,0.2051 m -2.34425,-0.2051 m -2.27302,-0.60905 m -2.13273,-0.99451 m -1.92763,-1.34974 m -1.66397,-1.66397 m -1.34974,-1.92763 m -0.99451,-2.13273 m -0.60905,-2.27302 m -0.205098,-2.34425 m 0.205098,-2.34426 m 0.60905,-2.27301 m 0.99451,-2.13273 m 1.34974,-1.92764 m 1.66397,-1.66396 m 1.92763,-1.34975 m 2.13273,-0.9945 m 2.27302,-0.60906 m 2.34425,-0.20509 m 2.34425,0.20509 m 2.27302,0.60906 m 2.13273,0.9945 M 43.463402,50.604216 M 42.796127,49.355499 M 42.50563,47.969801 m 0.109581,-1.411573 m 0.50087,-1.324265 m 0.85199,-1.130775 m 2.265434,-2.691174 m 1.758873,-3.046463 m 1.197907,-3.307503 m 0.553283,-1.303238 m 0.896416,-1.095894 m 1.167668,-0.800689 m 1.345298,-0.441273 m 1.415058,-0.04648 m 1.371354,0.352039 m 9.117858,3.440853 m 9.322049,2.841519 m 9.486887,2.230186 m 1.292368,0.450924 m 1.121658,0.784489 m 0.866894,1.059265 m 0.547161,1.254654 m 0.186424,1.356022 m -0.188286,1.355762 M 87.14349,47.75009 m -0.868347,1.058071 m -2.804678,2.867164 m -2.503447,3.133626 m -2.177044,3.368579 m -1.82875,3.569664 m -1.462078,3.734862 m -1.080697,3.862503 m -0.482143,1.281048 m -0.81147,1.102298 m -1.079983,0.840942 m -1.267559,0.516563 m -1.360145,0.153473 M 68.066353,73.01776 M 66.826138,72.438619 M 65.78944,71.544858 m -6.674843,-7.100793 m -7.121849,-6.65237 M 44.453957,51.615826 M 34.476814,42.61338 m -2.273025,0.609051 m -2.344246,0.205097 M 27.515289,43.222431 M 25.242271,42.61338 M 23.109543,41.61887 M 21.181908,40.269127 M 19.517944,38.60516 M 18.168198,36.677528 M 17.173691,34.5448 m -0.609055,-2.273022 m -0.205093,-2.34425 m 0.205093,-2.344249 m 0.609055,-2.273022 m 0.994507,-2.132729 m 1.349746,-1.927631 m 1.663964,-1.663967 m 1.927635,-1.349743 m 2.132728,-0.994511 m 2.273018,-0.60905 m 2.344254,-0.205098 m 2.344246,0.205098 m 2.273025,0.60905 m 2.132729,0.994511 m 1.927627,1.349743 m 1.663971,1.663967 m 1.349739,1.927631 m 0.994507,2.132729 m 0.609055,2.273022 m 0.205101,2.344249 m -0.205101,2.34425 M 42.545387,34.5448 m -0.994507,2.132728 m -1.349739,1.927632 m -1.663971,1.663967 m -1.927627,1.349743 m 54.590362,58.163723 m -2.317882,-2.67498 M 86.884172,94.18585 M 85.232401,91.055394 M 83.94824,87.757055 m -0.899807,-3.423222 m -0.503725,-3.503479 m -0.101074,-3.538063 m 0.302893,-3.526522 M 83.44944,70.29676 m 1.093767,-3.36627 m 1.470364,-3.219649 m 1.827793,-3.031052 m 2.161392,-2.802943 m 2.466814,-2.538294 m 2.74008,-2.240551 m 2.977621,-1.9136 m 3.176349,-1.561705 m 3.33366,-1.189449 m 3.44752,-0.801688 m 3.51644,-0.403473 m 3.53951,0 m 3.51643,0.403473 m 3.44752,0.801688 m 3.33367,1.189449 m 3.17634,1.561705 m 2.97762,1.9136 m 2.74008,2.240551 m 2.46682,2.538294 m 2.16139,2.802943 m 1.82779,3.031052 m 1.47037,3.219649 m 1.09376,3.36627 m 0.70292,3.469009 m 0.30289,3.526522 m -0.10107,3.538063 m -0.50373,3.503479 m -0.89981,3.423222 m -1.28416,3.298339 m -1.65177,3.130456 m -1.99785,2.921763 m -2.31788,2.67498 m -2.6077,2.393327 m -2.86352,2.08047 m -3.08201,1.74049 m -3.26033,1.37782 m -3.39613,0.9972 m -3.48766,0.60356 m -3.53374,0.20207 m -3.53373,-0.20207 m -3.48767,-0.60356 m -3.39613,-0.9972 m -3.260322,-1.37782 m -3.082011,-1.74049 m -2.863521,-2.08047 M 173.70903,31.416954 m 1.3453,0.441273 m 1.16767,0.800689 m 0.89642,1.095894 m 0.55328,1.303238 m 1.19791,3.307503 m 1.75887,3.046463 m 2.26543,2.691174 m 0.85199,1.130775 m 0.50087,1.324265 m 0.10958,1.411573 m -0.29049,1.385698 m -0.66728,1.248717 m -0.99055,1.01161 m -7.53879,6.175869 m -7.12185,6.65237 m -6.67485,7.100793 m -1.03669,0.893761 m -1.24022,0.579141 m -1.35079,0.221121 m -1.36015,-0.153473 m -1.26756,-0.516563 m -1.07998,-0.840942 m -0.81147,-1.102298 m -0.48215,-1.281047 m -1.08069,-3.862504 m -1.46208,-3.734862 m -1.82875,-3.569664 m -2.17704,-3.368579 m -2.50345,-3.133626 m -2.80468,-2.867164 m -0.86835,-1.058071 m -0.54888,-1.253903 m -0.18829,-1.355762 m 0.18643,-1.356022 m 0.54716,-1.254654 m 0.86689,-1.059265 m 1.12166,-0.784489 m 1.29237,-0.450924 m 9.48689,-2.230186 m 9.32204,-2.841519 m 9.11786,-3.440853 m 1.37136,-0.352039 m 20.09119,-14.128796 m 2.27303,-0.60905 m 2.34424,-0.205098 m 2.34425,0.205098 m 2.27302,0.60905 m 2.13273,0.994511 m 1.92764,1.349743 m 1.66396,1.663967 m 1.34975,1.927631 m 0.9945,2.132729 m 0.60906,2.273022 m 0.20509,2.344249 m -0.20509,2.34425 m -0.60906,2.273022 m -0.9945,2.132728 m -1.34975,1.927632 m -1.66396,1.663967 m -1.92764,1.349743 m -2.13273,0.99451 m -2.27302,0.609051 m -2.34425,0.205097 m -2.34424,-0.205097 m -2.27303,-0.609051 m -2.13273,-0.99451 m -1.92763,-1.349743 M 186.66084,38.60516 M 185.3111,36.677528 M 184.3166,34.5448 m -0.60906,-2.273022 m -0.2051,-2.34425 m 0.2051,-2.344249 m 0.60906,-2.273022 m 0.9945,-2.132729 m 1.34974,-1.927631 m 1.66397,-1.663967 m 1.92763,-1.349743"
         style="fill:none;stroke:#00ff00;stroke-width:1;stroke-linecap:round;stroke-linejoin:round;stroke-miterlimit:4;stroke-dasharray:none"
         id="face0-interior"
         inkscape:connector-curvature="0" />
    </g>
  </g>
</svg>
